# xmcd
#
# Track frame offsets:
#   150
#   19867
#   40500
#   60962
#   82375
#   96750
#   117367
#   136490
#   154315
#   172762
#
# Disc length: 2578 seconds
#
# Revision: 0
# Processed by: cddbd v1.5.2PL0 Copyright (c) Steve Scherf et al.
# Submitted via: uFREEDB 1.6.2
#
DISCID=790a100a
DTITLE=qqqq2 - wwww3
DYEAR=1900
DGENRE=Country
TTITLE0=y1
TTITLE1=y2
TTITLE2=y3
TTITLE3=y444
TTITLE4=y555
TTITLE5=y666
TTITLE6=y777
TTITLE7=y8888
TTITLE8=y999
TTITLE9=t0oi
EXTD=
EXTT0=
EXTT1=
EXTT2=
EXTT3=
EXTT4=
EXTT5=
EXTT6=
EXTT7=
EXTT8=
EXTT9=
PLAYORDER=
